<svg id="Layer_1" data-name="Layer 1" xmlns="http://www.w3.org/2000/svg" viewBox="0 0 128.33 148"><title>logo</title><path d="M98.33,84.45c-1.51-2.35-4.7-6.57-7.79-10.66-3-3.93-6-8-7.5-10.24A52.72,52.72,0,0,1,78.1,53a44.36,44.36,0,0,1-.93-6.27,53.88,53.88,0,0,0-.81-5.83c-1.24-5.3-6.43-8.92-8-9.9a.31.31,0,0,1-.13-.33,7.17,7.17,0,0,0-1.1-5.56,7.21,7.21,0,0,0-5.38-2.48c-6.94-.58-8.06,4.21-8.24,5.7a.31.31,0,0,1-.3.29c-1.59,0-4.54.21-6.48,1.47-1,.63-3,2.43-5.22,4.33A67.85,67.85,0,0,1,35,39.72,29.5,29.5,0,0,1,27.22,42l-.44,0a2.78,2.78,0,0,0-2.07,1,2.73,2.73,0,0,0-.58,2.21c.08.45.11.88.14,1.34a14.66,14.66,0,0,0,1.9,6.47A14.75,14.75,0,0,0,33.76,60a67.4,67.4,0,0,0,7.69,1.93,2.29,2.29,0,0,1,1.7,1.81,12.48,12.48,0,0,1-.62,4.45l-.06.22c-.82,3.1-4.57,7.5-7.87,11.39a48.84,48.84,0,0,0-5,6.48,39.14,39.14,0,0,0-4.35,13.33,26.68,26.68,0,0,0,1.06,10A22.5,22.5,0,0,0,35,119.92l.25.15c3.18,2,6.47,4,14,4l1.31,0c4.58-.13,10-.83,16.53-7.4a21,21,0,0,0,4.6-6.41,28.27,28.27,0,0,0,1.2-4,10.34,10.34,0,0,1,.1,4.68c-.9,4.73-2.36,7.19-3.16,8.23a1.31,1.31,0,0,0,.39,1.93c2.24,1.28,8.74,3.61,14.59,2.68,12-1.91,17.47-9.71,18.64-16.37C104.83,99.5,103.16,92,98.33,84.45ZM75.45,90.93a7.83,7.83,0,0,0-2.15-6.18,10,10,0,0,0-7.57-2.92,7.88,7.88,0,0,0-7.35,4.51c-1.1,2.27-1.17,4.9-.68,5.56a.61.61,0,0,0,.59.26c5.45-.86,8,.76,9.33,2.63a18.29,18.29,0,0,0-3.21-1.05,10.23,10.23,0,0,0-2.22-.22,15.13,15.13,0,0,0-7.32,1.89,13.18,13.18,0,0,0-3.26,3c-.53.64-1,1.24-1.35,1.26a3.85,3.85,0,0,1-1.46-.39,2.15,2.15,0,0,1-1.34-2V86.83c0-.25,0-.57,0-.93a23.39,23.39,0,0,1,.06-2.68,2.23,2.23,0,0,1,1.3-1.86,6.51,6.51,0,0,1,1.79-.23h.18l7.47.07a1.32,1.32,0,0,0,1-.58l2.45-3.52a.32.32,0,0,1,.26-.14l7.16-.08a.32.32,0,0,1,.2.06l3.1,3.8a1.33,1.33,0,0,0,.89.38H77.8c.2,0,.43,0,.67,0a2.54,2.54,0,0,1,1.83.35,1.72,1.72,0,0,1,.59,1.28L81,100.21a1.36,1.36,0,0,1-1.33,1.36l-6.4.12a8.88,8.88,0,0,0-1.37-3.5A10.36,10.36,0,0,0,75.45,90.93Z"/></svg>