<?xml version="1.0" encoding="utf-8"?>
<!-- Generator: Adobe Illustrator 21.0.2, SVG Export Plug-In . SVG Version: 6.00 Build 0)  -->
<svg version="1.1" id="Layer_1" xmlns="http://www.w3.org/2000/svg" xmlns:xlink="http://www.w3.org/1999/xlink" x="0px" y="0px"
	 viewBox="0 0 128.3 148" style="enable-background:new 0 0 128.3 148;" xml:space="preserve">
<style type="text/css">
	.st0{fill:#FFFFFF;}
</style>
<title>logo</title>
<path class="st0" d="M98.3,84.4c-1.5-2.3-4.7-6.6-7.8-10.7c-3-3.9-6-8-7.5-10.2c-2-3.3-3.7-6.9-4.9-10.5c-0.5-2.1-0.8-4.2-0.9-6.3
	c-0.2-2-0.4-3.9-0.8-5.8c-1.2-5.3-6.4-8.9-8-9.9c-0.1-0.1-0.2-0.2-0.1-0.3c0.4-1.9,0-3.9-1.1-5.6c-1.4-1.6-3.3-2.5-5.4-2.5
	c-6.9-0.6-8.1,4.2-8.2,5.7c0,0.2-0.1,0.3-0.3,0.3c-1.6,0-4.5,0.2-6.5,1.5c-1,0.6-3,2.4-5.2,4.3c-2.1,1.9-4.2,3.7-6.5,5.3
	c-2.5,1.1-5.1,1.9-7.8,2.3h-0.4c-0.8,0-1.6,0.4-2.1,1c-0.5,0.6-0.7,1.4-0.6,2.2c0.1,0.5,0.1,0.9,0.1,1.3c0.1,2.3,0.8,4.5,1.9,6.5
	c1.6,3.2,4.3,5.6,7.6,7c2.5,0.8,5.1,1.4,7.7,1.9c0.9,0.2,1.5,0.9,1.7,1.8c0.1,1.5-0.1,3-0.6,4.5l-0.1,0.2c-0.8,3.1-4.6,7.5-7.9,11.4
	c-1.8,2-3.5,4.2-5,6.5c-2.2,4.1-3.7,8.7-4.4,13.3c-0.3,3.4,0.1,6.8,1.1,10c1.8,4.2,4.8,7.8,8.7,10.3l0.3,0.2c3.2,2,6.5,4,14,4h1.3
	c4.6-0.1,10-0.8,16.5-7.4c1.9-1.8,3.5-4,4.6-6.4c0.5-1.3,0.9-2.6,1.2-4c0.4,1.5,0.4,3.1,0.1,4.7c-0.9,4.7-2.4,7.2-3.2,8.2
	c-0.4,0.6-0.3,1.4,0.2,1.8c0,0,0.1,0.1,0.1,0.1c2.2,1.3,8.7,3.6,14.6,2.7c12-1.9,17.5-9.7,18.6-16.4C104.8,99.5,103.2,92,98.3,84.4z
	 M75.4,90.9c0.2-2.3-0.6-4.5-2.2-6.2c-2-2-4.7-3.1-7.6-2.9c-3.1-0.1-6,1.7-7.3,4.5c-1.1,2.3-1.2,4.9-0.7,5.6
	c0.1,0.2,0.4,0.3,0.6,0.3c5.5-0.9,8,0.8,9.3,2.6c-1-0.4-2.1-0.8-3.2-1.1c-0.7-0.2-1.5-0.2-2.2-0.2c-2.6,0-5.1,0.7-7.3,1.9
	c-1.2,0.8-2.4,1.8-3.3,3c-0.5,0.6-1,1.2-1.3,1.3c-0.5,0-1-0.2-1.5-0.4c-0.8-0.3-1.3-1.1-1.3-2V86.8c0-0.3,0-0.6,0-0.9
	c0-0.9,0-1.8,0.1-2.7c0.1-0.8,0.6-1.5,1.3-1.9c0.6-0.2,1.2-0.2,1.8-0.2h0.2l7.5,0.1c0.4,0,0.8-0.2,1-0.6l2.5-3.5
	C61.8,77,61.9,77,62,77l7.2-0.1c0.1,0,0.1,0,0.2,0.1l3.1,3.8c0.2,0.2,0.6,0.4,0.9,0.4h4.5c0.2,0,0.4,0,0.7,0c0.6-0.1,1.3,0,1.8,0.3
	c0.4,0.3,0.6,0.8,0.6,1.3l0.1,17.5c0,0.7-0.6,1.3-1.3,1.4l-6.4,0.1c-0.2-1.3-0.7-2.4-1.4-3.5C74,96.4,75.3,93.7,75.4,90.9z"/>
</svg>
